<svg xmlns="http://www.w3.org/2000/svg" width="80" height="48" fill="none"><g fill="#374151" clip-path="url(#a)"><path d="M22.479 17.356c0 .967.104 1.75.286 2.326.208.575.468 1.202.832 1.882.13.209.182.418.182.6 0 .262-.156.524-.494.785l-1.639 1.098c-.234.156-.468.235-.676.235-.26 0-.52-.13-.78-.366a8 8 0 0 1-.937-1.228 20 20 0 0 1-.807-1.543q-3.043 3.607-7.648 3.607c-2.185 0-3.928-.627-5.203-1.881S3.67 19.943 3.67 17.852c0-2.222.78-4.025 2.367-5.384 1.587-1.36 3.694-2.039 6.374-2.039.884 0 1.795.078 2.757.21.963.13 1.951.339 2.992.574V9.305c0-1.986-.416-3.372-1.223-4.182-.832-.81-2.237-1.202-4.24-1.202-.91 0-1.847.104-2.81.34-.962.235-1.899.522-2.81.888a7.4 7.4 0 0 1-.91.34 1.6 1.6 0 0 1-.416.078c-.364 0-.546-.261-.546-.81v-1.28c0-.419.052-.732.182-.915s.364-.366.728-.55Q7.48 1.308 9.393.837C10.668.496 12.02.34 13.451.34c3.096 0 5.36.706 6.816 2.117 1.431 1.411 2.16 3.555 2.16 6.43v8.468zm-10.562 3.972c.858 0 1.742-.156 2.679-.47s1.77-.889 2.471-1.673c.417-.496.729-1.045.885-1.673.156-.627.26-1.385.26-2.274V14.14c-.754-.182-1.56-.34-2.393-.444a20 20 0 0 0-2.446-.157c-1.743 0-3.017.34-3.876 1.046-.858.706-1.275 1.699-1.275 3.006 0 1.228.313 2.143.963 2.77.624.654 1.535.967 2.731.967m20.89 2.823c-.469 0-.78-.078-.989-.261-.208-.157-.39-.523-.546-1.02L25.158 2.666c-.156-.523-.234-.862-.234-1.045 0-.419.208-.654.624-.654h2.55c.494 0 .832.079 1.015.262.208.156.364.522.52 1.019l4.37 17.303 4.059-17.303c.13-.523.286-.863.494-1.02.208-.156.572-.26 1.04-.26h2.082c.494 0 .832.078 1.04.26.208.157.39.523.495 1.02l4.11 17.512 4.5-17.512c.157-.523.339-.863.521-1.02.208-.156.546-.26 1.015-.26h2.419c.416 0 .65.208.65.653 0 .13-.026.261-.052.418a3.7 3.7 0 0 1-.182.653l-6.27 20.205q-.233.783-.546 1.019c-.208.157-.546.261-.988.261h-2.238c-.494 0-.832-.078-1.04-.261s-.39-.523-.495-1.046L40.585 6.012 36.58 22.844c-.13.523-.286.863-.495 1.046-.208.183-.572.261-1.04.261zm33.43.706c-1.354 0-2.706-.157-4.007-.47-1.301-.314-2.316-.654-2.992-1.046-.416-.235-.702-.497-.806-.732a1.9 1.9 0 0 1-.157-.732v-1.333c0-.549.209-.81.599-.81q.234 0 .468.078c.156.053.39.157.65.262a14 14 0 0 0 2.862.915c1.04.209 2.055.313 3.096.313 1.639 0 2.914-.287 3.798-.862.885-.575 1.353-1.412 1.353-2.483 0-.732-.234-1.333-.703-1.83s-1.352-.94-2.627-1.36l-3.772-1.175c-1.9-.601-3.304-1.49-4.163-2.666-.858-1.15-1.3-2.431-1.3-3.79q0-1.647.702-2.902a6.7 6.7 0 0 1 1.873-2.143c.78-.601 1.665-1.045 2.706-1.36 1.04-.313 2.133-.443 3.277-.443a13 13 0 0 1 1.744.104c.598.079 1.144.183 1.69.288.52.13 1.015.261 1.483.418q.703.236 1.093.47c.364.21.624.419.78.654q.235.313.235.862v1.229c0 .549-.209.836-.599.836-.208 0-.546-.104-.988-.313q-2.225-1.02-4.995-1.02c-1.483 0-2.654.235-3.46.732-.807.497-1.223 1.255-1.223 2.326 0 .732.26 1.36.78 1.856.52.497 1.483.993 2.862 1.438l3.694 1.176c1.873.601 3.226 1.437 4.033 2.509.806 1.072 1.196 2.3 1.196 3.66 0 1.123-.234 2.143-.676 3.031a7 7 0 0 1-1.9 2.3c-.806.654-1.768 1.124-2.887 1.464-1.17.366-2.393.549-3.72.549"/><path fill-rule="evenodd" d="M71.153 37.56c-8.56 6.351-20.995 9.723-31.687 9.723-14.985 0-28.486-5.567-38.684-14.82-.807-.732-.078-1.725.884-1.15 11.03 6.43 24.636 10.325 38.71 10.325 9.496 0 19.928-1.987 29.528-6.064 1.43-.654 2.653.94 1.249 1.986" clip-rule="evenodd"/><path fill-rule="evenodd" d="M74.716 33.483c-1.093-1.412-7.232-.68-10.016-.34-.833.104-.963-.628-.208-1.177 4.89-3.45 12.93-2.456 13.866-1.306.936 1.176-.26 9.252-4.839 13.12-.702.602-1.379.288-1.067-.496 1.041-2.587 3.356-8.416 2.264-9.801" clip-rule="evenodd"/></g><defs><clipPath id="a"><path fill="#fff" d="M0 0h79.272v47.459H0z"/></clipPath></defs></svg>