<svg xmlns="http://www.w3.org/2000/svg" width="135" height="45" fill="none"><g clip-path="url(#a)"><path fill="#fff" d="m124.592 14.08-7.367-1.727-1.316-.532-33.813.266v16.47l42.496.133z"/><path fill="#374151" d="M110.778 27.097a3.83 3.83 0 0 0-.395-3.454 4.044 4.044 0 0 0-2.763-1.461l-22.892-.266c-.132 0-.263-.133-.395-.133a.25.25 0 0 1-.072-.31.25.25 0 0 1 .072-.088c.132-.266.263-.399.526-.399l23.025-.265a8.24 8.24 0 0 0 4.033-1.605 8.34 8.34 0 0 0 2.676-3.442l1.316-3.454c0-.133.132-.266 0-.399a15.16 15.16 0 0 0-4.943-8.238A14.92 14.92 0 0 0 102.1.023c-3.26-.18-6.49.718-9.198 2.56a15.12 15.12 0 0 0-5.806 7.645 7.13 7.13 0 0 0-4.736-1.329 6.83 6.83 0 0 0-4.087 1.984 6.95 6.95 0 0 0-1.965 4.126 7.3 7.3 0 0 0 .131 2.391 9.57 9.57 0 0 0-6.62 2.933 9.75 9.75 0 0 0-2.72 6.764c-.023.49.022.982.13 1.46a.425.425 0 0 0 .395.4h42.233c.263 0 .526-.134.526-.4zM118.015 12.22h-.658c-.131 0-.263.133-.395.266l-.92 3.187a3.82 3.82 0 0 0 .394 3.454 4.07 4.07 0 0 0 2.763 1.461l4.868.266c.132 0 .263.133.395.133a.25.25 0 0 1 .072.31.25.25 0 0 1-.072.088c-.132.266-.263.398-.527.398l-4.999.266a8.23 8.23 0 0 0-4.033 1.605 8.35 8.35 0 0 0-2.677 3.442l-.263 1.196c-.132.133 0 .398.263.398h17.367a.35.35 0 0 0 .296-.1.35.35 0 0 0 .099-.298c.313-1.126.489-2.285.526-3.454a12.76 12.76 0 0 0-3.684-8.899 12.52 12.52 0 0 0-8.815-3.719M132.224 36.129a1.187 1.187 0 0 1-1.094-.738 1.21 1.21 0 0 1 .256-1.303 1.18 1.18 0 0 1 1.291-.26 1.205 1.205 0 0 1 .385 1.951 1.18 1.18 0 0 1-.838.35m0-2.126a.92.92 0 0 0-.851.574.94.94 0 0 0 .199 1.014.92.92 0 0 0 1.004.201.93.93 0 0 0 .569-.859.92.92 0 0 0-.264-.664.9.9 0 0 0-.657-.266m.526 1.594h-.263l-.263-.398h-.264v.398h-.263v-1.195h.658a.35.35 0 0 1 .38.237.34.34 0 0 1 .015.161c0 .133-.132.266-.263.399zm-.395-.664c.132 0 .132 0 .132-.133a.1.1 0 0 0-.01-.05.13.13 0 0 0-.071-.073.1.1 0 0 0-.051-.01h-.395v.399h.395zM14.341 33.738h2.894v7.97h5v2.523H14.34zm10.92 5.18c0-.738.148-1.468.436-2.146a5.5 5.5 0 0 1 1.237-1.8 5.4 5.4 0 0 1 1.84-1.162 5.4 5.4 0 0 1 2.144-.338 5.2 5.2 0 0 1 2.122.345c.676.26 1.292.658 1.81 1.168s.927 1.123 1.201 1.8c.274.676.408 1.402.393 2.133 0 .738-.149 1.468-.437 2.146a5.5 5.5 0 0 1-1.237 1.8 5.4 5.4 0 0 1-1.84 1.162 5.4 5.4 0 0 1-2.144.338 5.3 5.3 0 0 1-2.109-.368 5.4 5.4 0 0 1-1.799-1.17 5.4 5.4 0 0 1-1.203-1.788 5.5 5.5 0 0 1-.415-2.12m8.288 0a2.76 2.76 0 0 0-.697-2.03 2.7 2.7 0 0 0-1.934-.892 2.76 2.76 0 0 0-1.868.863 2.8 2.8 0 0 0-.764 1.926c0 .717.274 1.407.764 1.926.49.52 1.158.828 1.868.864 1.579.265 2.631-1.063 2.631-2.657m6.447.664v-5.844h2.894v5.844c0 1.461.79 2.258 1.974 2.258a1.82 1.82 0 0 0 1.495-.58 1.86 1.86 0 0 0 .478-1.545v-5.977h2.895v5.844c0 3.454-1.974 4.915-4.868 4.915-3.026-.133-4.868-1.594-4.868-4.915m14.077-5.844h4.079c3.684 0 5.92 2.125 5.92 5.18s-2.236 5.313-5.92 5.313h-3.947V33.738zm4.079 7.837a2.62 2.62 0 0 0 2.03-.682 2.67 2.67 0 0 0 .864-1.975 2.7 2.7 0 0 0-.865-1.975 2.64 2.64 0 0 0-2.029-.682h-1.184v5.313zm9.999-7.837h8.289v2.523h-5.395v1.727h4.868v2.391h-4.868v3.852h-2.894zm12.367 0h2.895v7.97h5v2.523h-7.895zm15.393-.133h2.895l4.473 10.626h-3.157l-.79-1.86h-4.078l-.79 1.86h-3.026zm2.632 6.508-1.184-2.922-1.184 2.922zm8.42-6.375h4.868a4.46 4.46 0 0 1 3.421 1.195 3.519 3.519 0 0 1 .13 4.59c-.353.431-.804.77-1.315.989l2.5 3.719h-3.289l-2.105-3.188h-1.316v3.188h-2.894zm4.736 5.047c.921 0 1.579-.531 1.579-1.195 0-.797-.658-1.196-1.579-1.196h-1.842v2.524h1.842zm8.552-5.047h8.42v2.39h-5.525v1.594h4.999v2.391h-4.999v1.594h5.657v2.524h-8.552zM8.025 40.246c-.198.47-.528.87-.948 1.154-.421.283-.914.436-1.42.44a2.76 2.76 0 0 1-1.868-.863 2.8 2.8 0 0 1-.763-1.926c0-.717.273-1.407.763-1.926a2.76 2.76 0 0 1 1.868-.864c.538.01 1.062.18 1.506.487.444.306.79.738.994 1.24h3.026a5.5 5.5 0 0 0-1.968-3.213 5.4 5.4 0 0 0-3.558-1.17 5.4 5.4 0 0 0-2.132.36 5.5 5.5 0 0 0-1.827 1.165 5.5 5.5 0 0 0-1.24 1.788A5.6 5.6 0 0 0 0 39.051a5.5 5.5 0 0 0 .415 2.12c.278.67.687 1.279 1.203 1.787a5.4 5.4 0 0 0 1.799 1.17 5.3 5.3 0 0 0 2.109.369 5.65 5.65 0 0 0 3.481-1.173c1-.77 1.719-1.852 2.044-3.078z"/></g><defs><clipPath id="a"><path fill="#fff" d="M0 0h134.047v44.286H0z"/></clipPath></defs></svg>