<svg xmlns="http://www.w3.org/2000/svg" width="145" height="49" fill="none"><g fill="#374151" clip-path="url(#a)"><path d="M61.454 25.033c0 6.776-5.304 11.768-11.813 11.768S37.828 31.81 37.828 25.033c0-6.823 5.304-11.768 11.813-11.768s11.813 4.945 11.813 11.768m-5.172 0c0-4.234-3.074-7.131-6.641-7.131s-6.642 2.897-6.642 7.131c0 4.192 3.074 7.131 6.642 7.131 3.567 0 6.641-2.945 6.641-7.13M86.937 25.033c0 6.776-5.304 11.768-11.813 11.768S63.311 31.81 63.311 25.033c0-6.818 5.304-11.768 11.813-11.768s11.813 4.945 11.813 11.768m-5.171 0c0-4.234-3.074-7.131-6.642-7.131s-6.642 2.897-6.642 7.131c0 4.192 3.074 7.131 6.642 7.131s6.642-2.945 6.642-7.13M111.36 13.976v21.128c0 8.69-5.129 12.24-11.192 12.24-5.708 0-9.143-3.815-10.438-6.934l4.502-1.873c.802 1.915 2.766 4.175 5.931 4.175 3.881 0 6.286-2.393 6.286-6.897v-1.693h-.181c-1.157 1.427-3.387 2.674-6.201 2.674-5.888 0-11.282-5.125-11.282-11.72 0-6.643 5.394-11.811 11.282-11.811 2.809 0 5.038 1.246 6.201 2.631h.181v-1.915h4.911zm-4.545 11.1c0-4.144-2.766-7.174-6.286-7.174-3.568 0-6.557 3.03-6.557 7.174 0 4.101 2.99 7.088 6.557 7.088 3.52 0 6.286-2.987 6.286-7.088M119.456 1.592V36.08h-5.044V1.592zM139.112 28.907l4.013 2.674c-1.295 1.915-4.417 5.215-9.811 5.215-6.69 0-11.686-5.167-11.686-11.768 0-6.998 5.039-11.768 11.107-11.768 6.111 0 9.1 4.86 10.077 7.486l.536 1.337-15.741 6.516c1.205 2.36 3.079 3.565 5.707 3.565 2.633 0 4.46-1.294 5.798-3.258m-12.355-4.235 10.523-4.366c-.579-1.47-2.32-2.494-4.37-2.494-2.628 0-6.286 2.319-6.153 6.86M18.736 21.972v-4.993H35.57c.165.87.25 1.9.25 3.014 0 3.746-1.025 8.378-4.327 11.678-3.212 3.343-7.316 5.125-12.753 5.125-10.077 0-18.55-8.203-18.55-18.273S8.664.249 18.74.249c5.575 0 9.546 2.186 12.53 5.036l-3.526 3.523c-2.14-2.006-5.038-3.566-9.01-3.566-7.358 0-13.113 5.927-13.113 13.28 0 7.355 5.755 13.281 13.114 13.281 4.773 0 7.491-1.915 9.232-3.655 1.413-1.412 2.342-3.428 2.708-6.182z"/></g><defs><clipPath id="a"><path fill="#fff" d="M0 0h144.365v48.829H0z"/></clipPath></defs></svg>