<svg xmlns="http://www.w3.org/2000/svg" width="99" height="60" fill="none"><path fill="#374151" d="M90.07 29.677c.004 13.514-10.95 24.472-24.464 24.476-13.515.003-24.472-10.95-24.476-24.464v-.012C41.126 16.162 52.08 5.204 65.594 5.2c13.515-.003 24.472 10.95 24.476 24.464z"/><path fill="#424D5E" d="M32.618 5.207c-13.435.085-24.312 11.015-24.312 24.47 0 13.507 10.962 24.47 24.47 24.47 6.34 0 12.118-2.416 16.466-6.376l-.002-.001h.005q1.337-1.22 2.485-2.62h-5.014a24 24 0 0 1-1.824-2.521h8.646a25 25 0 0 0 1.425-2.62H43.464c-.392-.84-.732-1.7-1.022-2.571h13.545a24.4 24.4 0 0 0 1.259-7.762c0-1.798-.195-3.551-.564-5.24H41.723q.28-1.304.699-2.57h13.55a25 25 0 0 0-1.056-2.62H43.463q.62-1.325 1.404-2.57h8.64a24.5 24.5 0 0 0-1.9-2.62h-4.816a23 23 0 0 1 2.454-2.473 24.38 24.38 0 0 0-16.47-6.376z"/><path fill="#374151" d="M87.615 42.469q.2 0 .39.102a.72.72 0 0 1 .295.294.8.8 0 0 1 .001.79.74.74 0 0 1-.293.293.8.8 0 0 1-.787 0 .75.75 0 0 1-.294-.294.8.8 0 0 1 .002-.79.74.74 0 0 1 .296-.293.8.8 0 0 1 .39-.102m0 .131a.7.7 0 0 0-.325.086.6.6 0 0 0-.246.245.656.656 0 0 0 .57.99.67.67 0 0 0 .573-.332.67.67 0 0 0-.002-.658.663.663 0 0 0-.57-.331m-.347 1.098v-.851h.293q.15 0 .217.024a.2.2 0 0 1 .107.082q.04.058.04.124a.22.22 0 0 1-.067.163.26.26 0 0 1-.176.078.3.3 0 0 1 .072.045q.052.05.126.168l.104.167h-.168l-.075-.134a.7.7 0 0 0-.144-.198.18.18 0 0 0-.11-.03h-.08v.363zm.137-.48h.166q.12 0 .163-.036a.12.12 0 0 0 .044-.094.1.1 0 0 0-.02-.068.13.13 0 0 0-.06-.044.4.4 0 0 0-.137-.016h-.156z"/><path fill="#5A6473" d="m40.897 36.697.325-2.215c-.178 0-.44.077-.67.077-.908 0-1.021-.485-.95-.839l.894-4.454h1.379l.284-2.514h-1.3l.265-1.524h-2.718c-.058.058-1.538 8.568-1.538 9.605 0 1.534.861 2.216 2.076 2.206.95-.008 1.691-.272 1.953-.342M41.722 32.475c0 3.682 2.43 4.556 4.5 4.556 1.912 0 2.914-.443 2.914-.443l.459-2.513s-1.615.657-2.928.657c-2.797 0-2.307-2.086-2.307-2.086l5.375.016s.342-1.688.342-2.375c0-1.717-.935-3.825-3.796-3.825-2.62 0-4.56 2.823-4.56 6.013m4.57-3.68c1.47 0 1.198 1.652 1.198 1.786h-2.892c0-.17.273-1.786 1.693-1.786M62.789 36.696l.466-2.84s-1.279.641-2.156.641c-1.848 0-2.59-1.411-2.59-2.928 0-3.075 1.59-4.768 3.36-4.768 1.329 0 2.394.746 2.394.746l.425-2.76s-1.258-.909-2.611-.914c-4.072-.016-6.402 2.82-6.402 7.72 0 3.25 1.725 5.46 4.834 5.46.88 0 2.28-.357 2.28-.357M26.566 26.502c-1.786 0-3.155.575-3.155.575l-.379 2.244s1.13-.46 2.84-.46c.97 0 1.68.11 1.68.898 0 .48-.087.656-.087.656s-.766-.064-1.12-.064c-2.544 0-4.62.962-4.62 3.86 0 2.286 1.552 2.81 2.515 2.81 1.838 0 2.566-1.161 2.608-1.165l-.021.964h2.294l1.024-7.175c0-3.045-2.656-3.143-3.579-3.143m.398 5.826c.05.438-.114 2.51-1.683 2.51-.809 0-1.02-.619-1.02-.984 0-.714.388-1.57 2.297-1.57.445 0 .33.032.406.044M32.583 36.968c.587 0 3.941.149 3.941-3.313 0-3.237-3.105-2.597-3.105-3.898 0-.647.506-.85 1.432-.85.367 0 1.78.116 1.78.116l.328-2.3s-.914-.205-2.403-.205c-1.928 0-3.884.77-3.884 3.402 0 2.983 3.262 2.684 3.262 3.94 0 .839-.911.908-1.614.908-1.215 0-2.31-.417-2.313-.397l-.348 2.277c.063.02.738.32 2.924.32M84.28 24.415l-.471 3.51s-.981-1.355-2.517-1.355c-2.888 0-4.377 2.879-4.377 6.186 0 2.134 1.062 4.227 3.231 4.227 1.56 0 2.426-1.088 2.426-1.088l-.115.929h2.535l1.99-12.39zm-1.12 6.822c0 1.376-.681 3.215-2.093 3.215-.938 0-1.378-.788-1.378-2.023 0-2.02.908-3.353 2.053-3.353.937 0 1.419.644 1.419 2.161M12.46 36.834l1.586-9.354.233 9.354h1.795l3.348-9.354-1.483 9.354h2.667l2.054-12.406-4.237-.032-2.52 7.595-.07-7.563h-3.882L9.867 36.834z"/><path fill="#5A6473" d="M52.601 36.852c.759-4.312 1.029-7.718 3.24-7.013.318-1.67 1.075-3.12 1.42-3.827 0 0-.109-.163-.792-.163-1.167 0-2.725 2.368-2.725 2.368l.233-1.464h-2.426l-1.626 10.099zM68.246 26.502c-1.787 0-3.156.575-3.156.575l-.379 2.244s1.131-.46 2.84-.46c.97 0 1.68.11 1.68.898 0 .48-.087.656-.087.656s-.765-.064-1.12-.064c-2.544 0-4.62.962-4.62 3.86 0 2.286 1.553 2.81 2.515 2.81 1.838 0 2.566-1.161 2.608-1.165l-.022.964H70.8l1.023-7.175c0-3.045-2.655-3.143-3.577-3.143m.397 5.826c.05.438-.114 2.51-1.683 2.51-.81 0-1.02-.619-1.02-.984 0-.714.388-1.57 2.297-1.57.445 0 .331.032.406.044M74.465 36.852c.416-3.173 1.187-7.627 3.24-7.013.317-1.669.01-1.665-.673-1.665-1.167 0-1.426.043-1.426.043l.233-1.464h-2.426l-1.625 10.099z"/><path fill="#fff" d="m41.575 35.907.326-2.215c-.178 0-.44.076-.671.076-.907 0-1.007-.482-.95-.838l.733-4.519h1.379l.332-2.45h-1.3l.265-1.523h-2.605c-.058.057-1.538 8.568-1.538 9.604 0 1.534.861 2.217 2.076 2.206.951-.008 1.692-.271 1.953-.341M42.4 31.685c0 3.681 2.43 4.556 4.501 4.556 1.911 0 2.752-.427 2.752-.427l.46-2.513s-1.454.64-2.767.64c-2.798 0-2.308-2.085-2.308-2.085h5.295s.342-1.689.342-2.376c0-1.717-.855-3.809-3.715-3.809-2.62 0-4.56 2.823-4.56 6.014m4.57-3.68c1.47 0 1.199 1.652 1.199 1.786h-2.893c0-.171.273-1.787 1.694-1.787M63.468 35.906l.466-2.84s-1.278.64-2.155.64c-1.849 0-2.59-1.411-2.59-2.927 0-3.076 1.59-4.768 3.36-4.768 1.328 0 2.394.745 2.394.745l.425-2.76s-1.58-.639-2.934-.639c-3.008 0-5.934 2.61-5.934 7.51 0 3.25 1.58 5.396 4.689 5.396.879 0 2.28-.357 2.28-.357M27.245 25.712c-1.786 0-3.156.574-3.156.574l-.378 2.244s1.13-.459 2.84-.459c.97 0 1.68.11 1.68.898 0 .479-.088.655-.088.655s-.765-.064-1.12-.064c-2.253 0-4.62.962-4.62 3.861 0 2.285 1.553 2.809 2.516 2.809 1.838 0 2.63-1.193 2.672-1.197l-.085.996H29.8l1.023-7.175c0-3.044-2.655-3.142-3.578-3.142m.559 5.842c.05.438-.275 2.493-1.844 2.493-.81 0-1.02-.618-1.02-.984 0-.713.388-1.57 2.297-1.57.444.001.492.049.567.06M33.262 36.177c.587 0 3.941.15 3.941-3.312 0-3.237-3.105-2.598-3.105-3.898 0-.647.506-.85 1.431-.85.368 0 1.78.116 1.78.116l.33-2.3s-.915-.205-2.404-.205c-1.928 0-3.884.77-3.884 3.402 0 2.983 3.262 2.683 3.262 3.94 0 .838-.911.907-1.614.907-1.215 0-2.31-.417-2.313-.397l-.348 2.277c.063.02.738.32 2.924.32M85.05 23.647l-.563 3.487s-.98-1.354-2.516-1.354c-2.387 0-4.377 2.878-4.377 6.185 0 2.135 1.062 4.227 3.231 4.227 1.56 0 2.426-1.088 2.426-1.088l-.115.929h2.535l1.99-12.39zm-1.21 6.8c0 1.376-.682 3.214-2.095 3.214-.937 0-1.377-.787-1.377-2.023 0-2.02.908-3.352 2.052-3.352.938 0 1.42.644 1.42 2.16M13.138 36.044l1.586-9.354.233 9.354h1.795l3.349-9.354-1.483 9.354h2.667l2.054-12.406h-4.125l-2.568 7.611-.134-7.611H12.71l-2.084 12.406zM53.28 36.06c.759-4.312.9-7.814 2.709-7.173.317-1.669.622-2.314.968-3.02 0 0-.162-.035-.502-.035-1.167 0-2.031 1.594-2.031 1.594l.232-1.464H52.23l-1.625 10.099zM69.48 25.712c-1.787 0-3.157.574-3.157.574l-.377 2.244s1.13-.459 2.839-.459c.97 0 1.68.11 1.68.898 0 .479-.087.655-.087.655s-.766-.064-1.12-.064c-2.253 0-4.62.962-4.62 3.861 0 2.285 1.552 2.809 2.515 2.809 1.838 0 2.63-1.193 2.672-1.197l-.085.996h2.294l1.023-7.175c0-3.044-2.655-3.142-3.578-3.142m.558 5.842c.05.438-.275 2.493-1.844 2.493-.809 0-1.019-.618-1.019-.984 0-.713.388-1.57 2.297-1.57.444.001.49.049.567.06M75.154 36.06c.759-4.312.9-7.814 2.709-7.173.317-1.669.623-2.314.969-3.02 0 0-.163-.035-.503-.035-1.167 0-2.031 1.594-2.031 1.594l.232-1.464h-2.426L72.48 36.061zM87.605 34.503q.2 0 .388.103a.796.796 0 0 1 .297 1.082.73.73 0 0 1-.292.293.8.8 0 0 1-.788 0 .74.74 0 0 1-.292-.293.791.791 0 0 1 .687-1.185m0 .13a.67.67 0 0 0-.572.331.67.67 0 0 0-.002.658q.087.156.246.245a.67.67 0 0 0 .656 0 .666.666 0 0 0 .242-.903.6.6 0 0 0-.247-.244.67.67 0 0 0-.323-.087m-.347 1.098v-.851h.293q.15 0 .217.024.067.023.107.082t.04.125a.23.23 0 0 1-.067.162.26.26 0 0 1-.176.077q.045.02.073.045.05.05.125.17l.104.166h-.168l-.075-.134a.7.7 0 0 0-.144-.198.18.18 0 0 0-.11-.03h-.08v.362zm.138-.479h.167q.12 0 .162-.036a.12.12 0 0 0 .044-.094.1.1 0 0 0-.02-.067.13.13 0 0 0-.06-.045.4.4 0 0 0-.137-.015h-.156z"/></svg>