<svg width="35" height="35" viewBox="0 0 35 35" fill="none" xmlns="http://www.w3.org/2000/svg">
<path fill-rule="evenodd" clip-rule="evenodd" d="M10.5235 23.3378C10.2902 23.3378 10.0554 23.2634 9.85708 23.1117C9.37875 22.7428 9.28833 22.0559 9.65729 21.5776L14.0221 15.9047C14.2 15.6728 14.464 15.5226 14.7527 15.4861C15.0473 15.4482 15.336 15.5299 15.565 15.7122L19.6775 18.9424L23.2752 14.3005C23.6456 13.8207 24.331 13.7317 24.8094 14.1051C25.2877 14.4755 25.3752 15.1624 25.0048 15.6392L20.7319 21.1518C20.554 21.3822 20.2915 21.5324 20.0027 21.5674C19.711 21.6067 19.4223 21.5222 19.1919 21.3428L15.0823 18.114L11.3912 22.9105C11.1754 23.1905 10.8517 23.3378 10.5235 23.3378Z" fill="white"/>
<mask id="mask0_516_1684" style="mask-type:luminance" maskUnits="userSpaceOnUse" x="25" y="2" width="9" height="9">
<path fill-rule="evenodd" clip-rule="evenodd" d="M25.2227 2.91699H33.016V10.7116H25.2227V2.91699Z" fill="white"/>
</mask>
<g mask="url(#mask0_516_1684)">
<path fill-rule="evenodd" clip-rule="evenodd" d="M29.1193 5.10449C28.1772 5.10449 27.4102 5.87012 27.4102 6.81366C27.4102 7.75574 28.1772 8.52428 29.1193 8.52428C30.0614 8.52428 30.8285 7.75574 30.8285 6.81366C30.8285 5.87012 30.0614 5.10449 29.1193 5.10449ZM29.1193 10.7118C26.9712 10.7118 25.2227 8.96324 25.2227 6.81366C25.2227 4.66408 26.9712 2.91699 29.1193 2.91699C31.2689 2.91699 33.016 4.66408 33.016 6.81366C33.016 8.96324 31.2689 10.7118 29.1193 10.7118Z" fill="white"/>
</g>
<mask id="mask1_516_1684" style="mask-type:luminance" maskUnits="userSpaceOnUse" x="2" y="4" width="30" height="30">
<path fill-rule="evenodd" clip-rule="evenodd" d="M2.9165 4.14453H31.8818V33.1085H2.9165V4.14453Z" fill="white"/>
</mask>
<g mask="url(#mask1_516_1684)">
<path fill-rule="evenodd" clip-rule="evenodd" d="M23.673 33.1085H11.1255C6.21525 33.1085 2.9165 29.6595 2.9165 24.5262V12.7399C2.9165 7.59932 6.21525 4.14453 11.1255 4.14453H21.7246C22.3284 4.14453 22.8184 4.63453 22.8184 5.23828C22.8184 5.84203 22.3284 6.33203 21.7246 6.33203H11.1255C7.46796 6.33203 5.104 8.8462 5.104 12.7399V24.5262C5.104 28.471 7.41109 30.921 11.1255 30.921H23.673C27.3305 30.921 29.6944 28.4112 29.6944 24.5262V14.261C29.6944 13.6572 30.1844 13.1672 30.7882 13.1672C31.3919 13.1672 31.8819 13.6572 31.8819 14.261V24.5262C31.8819 29.6595 28.5832 33.1085 23.673 33.1085Z" fill="white"/>
</g>
</svg>
