<svg width="35" height="35" viewBox="0 0 35 35" fill="none" xmlns="http://www.w3.org/2000/svg">
<path fill-rule="evenodd" clip-rule="evenodd" d="M11.178 5.104C7.48838 5.104 5.104 7.6313 5.104 11.544V23.4557C5.104 27.3684 7.48838 29.8957 11.178 29.8957H23.8188C27.5098 29.8957 29.8957 27.3684 29.8957 23.4557V11.544C29.8957 7.6313 27.5098 5.104 23.8203 5.104H11.178ZM23.8188 32.0832H11.178C6.23567 32.0832 2.9165 28.6153 2.9165 23.4557V11.544C2.9165 6.38442 6.23567 2.9165 11.178 2.9165H23.8203C28.7625 2.9165 32.0832 6.38442 32.0832 11.544V23.4557C32.0832 28.6153 28.7625 32.0832 23.8188 32.0832Z" fill="white"/>
<path fill-rule="evenodd" clip-rule="evenodd" d="M15.7693 22.0542C15.4908 22.0542 15.2093 21.9477 14.9964 21.7334L11.5343 18.2727C11.107 17.8454 11.107 17.1542 11.5343 16.7269C11.9616 16.2996 12.6529 16.2996 13.0802 16.7269L15.7693 19.4131L21.9177 13.2663C22.345 12.839 23.0362 12.839 23.4635 13.2663C23.8908 13.6936 23.8908 14.3848 23.4635 14.8121L16.5423 21.7334C16.3293 21.9477 16.0493 22.0542 15.7693 22.0542Z" fill="white"/>
</svg>
