<svg width="35" height="35" viewBox="0 0 35 35" fill="none" xmlns="http://www.w3.org/2000/svg">
<path fill-rule="evenodd" clip-rule="evenodd" d="M11.178 5.104C7.48838 5.104 5.104 7.6313 5.104 11.544V23.4557C5.104 27.3684 7.48838 29.8957 11.178 29.8957H23.8188C27.5098 29.8957 29.8957 27.3684 29.8957 23.4557V11.544C29.8957 7.6313 27.5113 5.104 23.8203 5.104H11.178ZM23.8188 32.0832H11.178C6.23567 32.0832 2.9165 28.6153 2.9165 23.4557V11.544C2.9165 6.38442 6.23567 2.9165 11.178 2.9165H23.8203C28.7625 2.9165 32.0832 6.38442 32.0832 11.544V23.4557C32.0832 28.6153 28.7625 32.0832 23.8188 32.0832Z" fill="white"/>
<path fill-rule="evenodd" clip-rule="evenodd" d="M22.4437 21.5361C22.2527 21.5361 22.0602 21.4865 21.8837 21.3829L16.9385 18.4327C16.609 18.2344 16.4048 17.8771 16.4048 17.4936V11.1323C16.4048 10.5286 16.8948 10.0386 17.4985 10.0386C18.1023 10.0386 18.5923 10.5286 18.5923 11.1323V16.8723L23.0052 19.5017C23.5229 19.8123 23.6935 20.4832 23.3844 21.0023C23.1787 21.345 22.8156 21.5361 22.4437 21.5361Z" fill="white"/>
</svg>
