<svg width="32" height="29" viewBox="0 0 32 29" fill="none" xmlns="http://www.w3.org/2000/svg">
<path fill-rule="evenodd" clip-rule="evenodd" d="M29.921 19.1813H24.0176C21.2512 19.1813 18.9995 16.9311 18.998 14.1661C18.998 11.3981 21.2497 9.14648 24.0176 9.14502H29.921C30.5247 9.14502 31.0147 9.63502 31.0147 10.2388C31.0147 10.8425 30.5247 11.3325 29.921 11.3325H24.0176C22.4558 11.334 21.1855 12.6042 21.1855 14.1646C21.1855 15.7236 22.4572 16.9938 24.0176 16.9938H29.921C30.5247 16.9938 31.0147 17.4838 31.0147 18.0875C31.0147 18.6913 30.5247 19.1813 29.921 19.1813" fill="white"/>
<path fill-rule="evenodd" clip-rule="evenodd" d="M24.685 15.168H24.23C23.6262 15.168 23.1362 14.678 23.1362 14.0742C23.1362 13.4705 23.6262 12.9805 24.23 12.9805H24.685C25.2887 12.9805 25.7787 13.4705 25.7787 14.0742C25.7787 14.678 25.2887 15.168 24.685 15.168" fill="white"/>
<mask id="mask0_2401_358" style="mask-type:luminance" maskUnits="userSpaceOnUse" x="0" y="0" width="32" height="29">
<path fill-rule="evenodd" clip-rule="evenodd" d="M0.916504 0.375H31.0145V28.3355H0.916504V0.375Z" fill="white"/>
</mask>
<g mask="url(#mask0_2401_358)">
<path fill-rule="evenodd" clip-rule="evenodd" d="M9.6631 2.5625C6.04643 2.5625 3.10352 5.50542 3.10352 9.12208V19.5885C3.10352 23.2052 6.04643 26.1481 9.6631 26.1481H22.2689C25.8856 26.1481 28.8271 23.2052 28.8271 19.5885V9.12208C28.8271 5.50542 25.8856 2.5625 22.2689 2.5625H9.6631ZM22.2689 28.3356H9.6631C4.84039 28.3356 0.916016 24.4112 0.916016 19.5885V9.12208C0.916016 4.29792 4.84039 0.375 9.6631 0.375H22.2689C27.0916 0.375 31.0146 4.29792 31.0146 9.12208V19.5885C31.0146 24.4112 27.0916 28.3356 22.2689 28.3356V28.3356Z" fill="white"/>
</g>
<path fill-rule="evenodd" clip-rule="evenodd" d="M16.4985 9.18066H8.625C8.02125 9.18066 7.53125 8.69066 7.53125 8.08691C7.53125 7.48316 8.02125 6.99316 8.625 6.99316H16.4985C17.1023 6.99316 17.5923 7.48316 17.5923 8.08691C17.5923 8.69066 17.1023 9.18066 16.4985 9.18066" fill="white"/>
</svg>
