<svg width="35" height="35" viewBox="0 0 35 35" fill="none" xmlns="http://www.w3.org/2000/svg">
<mask id="mask0_516_1650" style="mask-type:luminance" maskUnits="userSpaceOnUse" x="20" y="2" width="14" height="14">
<path fill-rule="evenodd" clip-rule="evenodd" d="M20.9331 2.91699H33.3858V15.3607H20.9331V2.91699Z" fill="white"/>
</mask>
<g mask="url(#mask0_516_1650)">
<path fill-rule="evenodd" clip-rule="evenodd" d="M32.2916 15.3607C31.7418 15.3607 31.2693 14.948 31.2066 14.3894C30.6539 9.4661 26.8302 5.64526 21.9054 5.09839C21.306 5.0313 20.8729 4.49172 20.94 3.89089C21.0056 3.29151 21.5408 2.84964 22.1475 2.92547C28.0945 3.5861 32.7131 8.1988 33.3795 14.1444C33.4466 14.7453 33.015 15.2863 32.4156 15.3534C32.3747 15.3578 32.3325 15.3607 32.2916 15.3607" fill="white"/>
</g>
<path fill-rule="evenodd" clip-rule="evenodd" d="M27.1285 15.376C26.6151 15.376 26.1587 15.0143 26.0566 14.4922C25.6366 12.3339 23.9727 10.6699 21.8172 10.2514C21.2237 10.1362 20.8372 9.56304 20.9524 8.96949C21.0677 8.37595 21.651 7.98804 22.2343 8.1047C25.2691 8.69387 27.6126 11.036 28.2033 14.0722C28.3185 14.6672 27.932 15.2403 27.3399 15.3555C27.2685 15.3687 27.1985 15.376 27.1285 15.376" fill="white"/>
<path d="M4.90179 5.85144C7.71245 3.04053 9.54264 2.29505 11.4955 3.41785C12.0573 3.7409 12.5841 4.19345 13.3002 4.92078L15.4975 7.19812C16.7109 8.52214 16.9863 9.79284 16.5912 11.2802L16.5366 11.4764L16.477 11.6727L16.183 12.5341C15.5545 14.4663 15.8168 15.5571 18.0532 17.7929C20.3786 20.1176 21.4642 20.3072 23.5453 19.58L23.9164 19.4511L24.3647 19.3055L24.561 19.2509C26.1418 18.8291 27.4778 19.1658 28.894 20.5809L30.6645 22.2909L31.185 22.8036C31.7625 23.3925 32.1442 23.8592 32.4262 24.3524C33.5423 26.3049 32.7966 28.1344 29.9047 31.0155L29.6293 31.2948C29.1977 31.7107 28.794 32.0086 28.2016 32.2899C27.2069 32.7621 26.0319 32.9407 24.6664 32.7509C21.3014 32.2829 17.0333 29.6271 11.6254 24.2206C11.1853 23.7805 10.7632 23.3489 10.3598 22.9257L9.57757 22.0907C2.24242 14.1213 1.59503 9.2255 4.60101 6.15516L4.79535 5.9618L4.90179 5.85144ZM10.4057 5.31434C9.73266 4.92731 9.0054 5.09048 7.66058 6.24793L7.23871 6.62586C7.16504 6.69386 7.08925 6.76453 7.01215 6.83777L6.52777 7.30945L6.48382 7.36414L6.1557 7.69422C5.36186 8.50507 4.98499 9.49522 5.30902 11.1971C5.84084 13.9899 8.27539 17.778 13.1723 22.6737C18.2746 27.7747 22.1619 30.1936 24.9672 30.5839C26.6025 30.8113 27.4369 30.4152 28.2875 29.5438L28.9369 28.8886C29.241 28.5704 29.5008 28.2819 29.7202 28.0184L30.02 27.6415C30.785 26.6225 30.8549 26.0107 30.5278 25.4384C30.4033 25.2206 30.2219 24.982 29.9584 24.6903L29.6 24.3124L29.3891 24.1005L27.1557 21.9442C26.4095 21.2561 25.8997 21.1585 25.1254 21.3651L24.9018 21.4296L23.977 21.743C21.2935 22.6097 19.3571 22.1898 16.5063 19.3397C13.5537 16.3879 13.2074 14.4162 14.1967 11.578L14.2602 11.3954L14.436 10.8671L14.5219 10.5302C14.6749 9.79678 14.5005 9.28535 13.7123 8.49695C13.6799 8.46454 13.6434 8.42756 13.6039 8.38758L11.5297 6.24305C11.0548 5.77487 10.7099 5.48929 10.4057 5.31434Z" fill="white"/>
</svg>
