<svg width="35" height="35" viewBox="0 0 35 35" fill="none" xmlns="http://www.w3.org/2000/svg">
<path fill-rule="evenodd" clip-rule="evenodd" d="M30.1388 14.4434H4.14551C3.54176 14.4434 3.05176 13.9534 3.05176 13.3496C3.05176 12.7459 3.54176 12.2559 4.14551 12.2559H30.1388C30.7426 12.2559 31.2326 12.7459 31.2326 13.3496C31.2326 13.9534 30.7426 14.4434 30.1388 14.4434" fill="white"/>
<path fill-rule="evenodd" clip-rule="evenodd" d="M23.6269 20.1387C23.0232 20.1387 22.5273 19.6487 22.5273 19.0449C22.5273 18.4412 23.0101 17.9512 23.6138 17.9512H23.6269C24.2307 17.9512 24.7207 18.4412 24.7207 19.0449C24.7207 19.6487 24.2307 20.1387 23.6269 20.1387" fill="white"/>
<path fill-rule="evenodd" clip-rule="evenodd" d="M17.1552 20.1387C16.5515 20.1387 16.0557 19.6487 16.0557 19.0449C16.0557 18.4412 16.5384 17.9512 17.1421 17.9512H17.1552C17.759 17.9512 18.249 18.4412 18.249 19.0449C18.249 19.6487 17.759 20.1387 17.1552 20.1387" fill="white"/>
<path fill-rule="evenodd" clip-rule="evenodd" d="M10.6704 20.1387C10.0666 20.1387 9.56934 19.6487 9.56934 19.0449C9.56934 18.4412 10.0535 17.9512 10.6573 17.9512H10.6704C11.2741 17.9512 11.7641 18.4412 11.7641 19.0449C11.7641 19.6487 11.2741 20.1387 10.6704 20.1387" fill="white"/>
<path fill-rule="evenodd" clip-rule="evenodd" d="M23.6269 25.8066C23.0232 25.8066 22.5273 25.3166 22.5273 24.7129C22.5273 24.1091 23.0101 23.6191 23.6138 23.6191H23.6269C24.2307 23.6191 24.7207 24.1091 24.7207 24.7129C24.7207 25.3166 24.2307 25.8066 23.6269 25.8066" fill="white"/>
<path fill-rule="evenodd" clip-rule="evenodd" d="M17.1552 25.8066C16.5515 25.8066 16.0557 25.3166 16.0557 24.7129C16.0557 24.1091 16.5384 23.6191 17.1421 23.6191H17.1552C17.759 23.6191 18.249 24.1091 18.249 24.7129C18.249 25.3166 17.759 25.8066 17.1552 25.8066" fill="white"/>
<path fill-rule="evenodd" clip-rule="evenodd" d="M10.6704 25.8066C10.0666 25.8066 9.56934 25.3166 9.56934 24.7129C9.56934 24.1091 10.0535 23.6191 10.6573 23.6191H10.6704C11.2741 23.6191 11.7641 24.1091 11.7641 24.7129C11.7641 25.3166 11.2741 25.8066 10.6704 25.8066" fill="white"/>
<path fill-rule="evenodd" clip-rule="evenodd" d="M23.0322 8.44488C22.4285 8.44488 21.9385 7.95488 21.9385 7.35113V2.55176C21.9385 1.94801 22.4285 1.45801 23.0322 1.45801C23.636 1.45801 24.126 1.94801 24.126 2.55176V7.35113C24.126 7.95488 23.636 8.44488 23.0322 8.44488" fill="white"/>
<path fill-rule="evenodd" clip-rule="evenodd" d="M11.2515 8.44488C10.6477 8.44488 10.1577 7.95488 10.1577 7.35113V2.55176C10.1577 1.94801 10.6477 1.45801 11.2515 1.45801C11.8552 1.45801 12.3452 1.94801 12.3452 2.55176V7.35113C12.3452 7.95488 11.8552 8.44488 11.2515 8.44488" fill="white"/>
<mask id="mask0_516_1712" style="mask-type:luminance" maskUnits="userSpaceOnUse" x="2" y="3" width="30" height="30">
<path fill-rule="evenodd" clip-rule="evenodd" d="M2.9165 3.76074H31.354V32.8121H2.9165V3.76074Z" fill="white"/>
</mask>
<g mask="url(#mask0_516_1712)">
<path fill-rule="evenodd" clip-rule="evenodd" d="M10.968 5.94824C7.1865 5.94824 5.104 7.96512 5.104 11.627V24.8234C5.104 28.5655 7.1865 30.6247 10.968 30.6247H23.3025C27.084 30.6247 29.1665 28.6034 29.1665 24.9343V11.627C29.1723 9.82595 28.6882 8.42595 27.7271 7.46345C26.7384 6.47178 25.2144 5.94824 23.3157 5.94824H10.968ZM23.3025 32.8122H10.968C6.00234 32.8122 2.9165 29.7512 2.9165 24.8234V11.627C2.9165 6.77366 6.00234 3.76074 10.968 3.76074H23.3157C25.808 3.76074 27.8686 4.50741 29.2759 5.91762C30.6423 7.28991 31.3613 9.26303 31.354 11.6299V24.9343C31.354 29.7934 28.2682 32.8122 23.3025 32.8122V32.8122Z" fill="white"/>
</g>
</svg>
