<svg width="35" height="35" viewBox="0 0 35 35" fill="none" xmlns="http://www.w3.org/2000/svg">
<mask id="mask0_516_1739" style="mask-type:luminance" maskUnits="userSpaceOnUse" x="2" y="2" width="30" height="32">
<path fill-rule="evenodd" clip-rule="evenodd" d="M2.9165 2.91797H31.0402V33.1361H2.9165V2.91797Z" fill="white"/>
</mask>
<g mask="url(#mask0_516_1739)">
<path fill-rule="evenodd" clip-rule="evenodd" d="M10.5032 25.4346C10.8372 25.4346 11.1711 25.4769 11.4978 25.5644C12.4836 25.8298 13.3397 26.489 13.8472 27.3742C14.1768 27.9298 14.3591 28.5788 14.3649 29.2409C14.3649 30.1888 15.1261 30.9486 16.0624 30.9486H17.8897C18.8216 30.9486 19.5828 30.1932 19.5872 29.2613C19.5813 28.2317 19.9838 27.2532 20.7203 26.5167C21.4466 25.7905 22.4616 25.3544 23.4766 25.3836C24.1416 25.3996 24.7818 25.579 25.3461 25.8998C26.1584 26.3651 27.1953 26.088 27.6649 25.2859L28.6332 23.6715C28.8491 23.2996 28.9118 22.833 28.7966 22.4028C28.6828 21.9726 28.397 21.5992 28.012 21.379C27.1107 20.8598 26.4676 20.0228 26.2007 19.0194C25.9368 18.0351 26.0811 16.9603 26.5959 16.0751C26.9313 15.4917 27.4228 15.0003 28.012 14.6619C28.8024 14.1996 29.0795 13.1657 28.6201 12.3607C28.6011 12.3286 28.5836 12.2951 28.5691 12.2601L27.7145 10.7784C27.2493 9.96901 26.2138 9.69047 25.4016 10.1528C24.5236 10.6719 23.4795 10.8207 22.4761 10.5567C21.4743 10.2971 20.6343 9.66276 20.1107 8.76734C19.7753 8.20734 19.593 7.55547 19.5872 6.89193C19.6003 6.39318 19.4253 5.94547 19.1074 5.61734C18.7909 5.29068 18.3461 5.10547 17.8897 5.10547H16.0624C15.6103 5.10547 15.1874 5.28193 14.868 5.59984C14.5501 5.91922 14.3766 6.34359 14.3795 6.79568C14.3488 8.92776 12.6061 10.6442 10.4959 10.6442C9.81926 10.6369 9.16739 10.4546 8.60155 10.1163C7.80676 9.66422 6.76843 9.94276 6.30322 10.7521L5.31593 12.3753C4.86385 13.1598 5.14093 14.1967 5.94593 14.6648C7.1403 15.3561 7.88551 16.6453 7.88551 18.0278C7.88551 19.4103 7.1403 20.698 5.94301 21.3907C5.14239 21.8544 4.8653 22.8855 5.32905 23.6876L6.24926 25.2742C6.47676 25.684 6.84864 25.9801 7.27885 26.1011C7.7076 26.2207 8.1801 26.1696 8.57385 25.9509C9.1528 25.6111 9.82655 25.4346 10.5032 25.4346M17.8897 33.1361H16.0624C13.9201 33.1361 12.1774 31.3948 12.1774 29.2526C12.1745 28.9886 12.0986 28.7144 11.9572 28.4767C11.7282 28.0771 11.3578 27.7913 10.9305 27.6776C10.5061 27.5638 10.0409 27.6265 9.65885 27.8482C8.74301 28.3586 7.6653 28.4826 6.67947 28.2055C5.6951 27.9269 4.84489 27.2503 4.34614 26.3534L3.43468 24.7828C2.36864 22.9336 3.00301 20.5638 4.84926 19.4963C5.3728 19.1944 5.69801 18.6315 5.69801 18.0278C5.69801 17.424 5.3728 16.8596 4.84926 16.5578C3.00155 15.4844 2.36864 13.1088 3.43322 11.2596L4.42197 9.63651C5.47343 7.80776 7.85051 7.16318 9.70405 8.22776C9.95635 8.37797 10.2305 8.4538 10.5091 8.45672C11.4176 8.45672 12.1774 7.70714 12.192 6.78547C12.1861 5.76901 12.5872 4.79339 13.3178 4.05693C14.0513 3.32193 15.0255 2.91797 16.0624 2.91797H17.8897C18.9338 2.91797 19.9488 3.34672 20.6766 4.09193C21.4028 4.84151 21.8038 5.86964 21.7732 6.91234C21.7761 7.14714 21.8534 7.41839 21.9934 7.65609C22.2253 8.04984 22.5913 8.32693 23.0259 8.44068C23.4605 8.54859 23.9155 8.49026 24.302 8.2613C26.1686 7.19526 28.5443 7.83401 29.6103 9.68609L30.5188 11.2596C30.5422 11.3019 30.5626 11.3428 30.5801 11.3851C31.5455 13.2094 30.9009 15.5063 29.1072 16.5548C28.8461 16.7051 28.6347 16.9151 28.4888 17.1688C28.2628 17.5611 28.2001 18.0278 28.3138 18.4565C28.4305 18.894 28.7091 19.2571 29.1013 19.4817C29.9866 19.9907 30.6472 20.8482 30.9111 21.8384C31.1751 22.8271 31.0307 23.9005 30.5159 24.7857L29.5476 26.3986C28.4816 28.2303 26.1059 28.8646 24.2582 27.7971C24.0118 27.6557 23.7274 27.5784 23.4445 27.5711H23.4357C23.0143 27.5711 22.5811 27.7505 22.2661 28.064C21.9468 28.3834 21.7718 28.8092 21.7747 29.2613C21.7645 31.4036 20.0218 33.1361 17.8897 33.1361" fill="white"/>
</g>
<path fill-rule="evenodd" clip-rule="evenodd" d="M16.9824 15.2764C15.4657 15.2764 14.2319 16.5116 14.2319 18.0282C14.2319 19.5449 15.4657 20.7772 16.9824 20.7772C18.499 20.7772 19.7328 19.5449 19.7328 18.0282C19.7328 16.5116 18.499 15.2764 16.9824 15.2764M16.9823 22.9647C14.2596 22.9647 12.0444 20.751 12.0444 18.0282C12.0444 15.3055 14.2596 13.0889 16.9823 13.0889C19.7051 13.0889 21.9203 15.3055 21.9203 18.0282C21.9203 20.751 19.7051 22.9647 16.9823 22.9647" fill="white"/>
</svg>
