<svg width="35" height="35" viewBox="0 0 35 35" fill="none" xmlns="http://www.w3.org/2000/svg">
<mask id="mask0_516_1589" style="mask-type:luminance" maskUnits="userSpaceOnUse" x="5" y="2" width="26" height="31">
<path fill-rule="evenodd" clip-rule="evenodd" d="M5.8335 2.91748H30.5768V32.6027H5.8335V2.91748Z" fill="white"/>
</mask>
<g mask="url(#mask0_516_1589)">
<path fill-rule="evenodd" clip-rule="evenodd" d="M18.2051 5.10449C16.9685 5.10449 9.16639 7.85199 8.2666 8.60303C8.00118 8.86991 7.99098 9.33366 8.04785 12.4384C8.0741 13.9347 8.11056 15.9676 8.11056 18.7822C8.11056 26.367 16.4551 29.7343 18.2037 30.3541C19.9508 29.7314 28.2997 26.3451 28.2997 18.7822C28.2997 15.9647 28.3362 13.9303 28.3639 12.4341C28.4193 9.3322 28.4091 8.86845 28.1276 8.58845C27.2454 7.85199 19.4418 5.10449 18.2051 5.10449ZM18.2051 32.6028C18.0987 32.6028 17.9922 32.5882 17.8887 32.5562C17.4001 32.4089 5.92306 28.8185 5.92306 18.7822C5.92306 15.9866 5.8866 13.9639 5.86035 12.4793C5.79327 8.77074 5.77868 7.99783 6.73681 7.04116C7.8816 5.89345 16.5514 2.91699 18.2051 2.91699C19.8574 2.91699 28.5272 5.89345 29.6749 7.04116C30.6316 7.99783 30.617 8.77074 30.5499 12.4749C30.5237 13.9595 30.4872 15.9822 30.4872 18.7822C30.4872 28.8185 19.0101 32.4089 18.5216 32.5562C18.4181 32.5882 18.3116 32.6028 18.2051 32.6028Z" fill="white"/>
</g>
<path fill-rule="evenodd" clip-rule="evenodd" d="M17.1745 21.1744C16.8843 21.1744 16.6058 21.0592 16.4001 20.8536L13.641 18.0915C13.2151 17.6642 13.2151 16.9701 13.6424 16.5442C14.0683 16.1169 14.7624 16.1169 15.1897 16.5442L17.1745 18.5319L22.0862 13.6203C22.5135 13.193 23.2047 13.193 23.632 13.6203C24.0593 14.0476 24.0593 14.7403 23.632 15.1676L17.9474 20.8536C17.7433 21.0592 17.4647 21.1744 17.1745 21.1744Z" fill="white"/>
</svg>
