<svg width="35" height="35" viewBox="0 0 35 35" fill="none" xmlns="http://www.w3.org/2000/svg">
<mask id="mask0_516_1666" style="mask-type:luminance" maskUnits="userSpaceOnUse" x="2" y="4" width="30" height="29">
<path fill-rule="evenodd" clip-rule="evenodd" d="M2.9165 4.375H31.3525V32.811H2.9165V4.375Z" fill="white"/>
</mask>
<g mask="url(#mask0_516_1666)">
<path fill-rule="evenodd" clip-rule="evenodd" d="M15.757 21.6089L21.0902 30.2612C21.3235 30.6404 21.6881 30.636 21.8354 30.6156C21.9827 30.5951 22.337 30.5047 22.4654 30.0745L29.1343 7.55056C29.251 7.15244 29.0366 6.88119 28.9404 6.78494C28.847 6.68869 28.5802 6.48306 28.1937 6.59244L5.65372 13.1929C5.22642 13.3183 5.13309 13.677 5.11267 13.8243C5.09226 13.9745 5.08642 14.3464 5.46413 14.5841L14.2156 20.0572L21.9477 12.2435C22.372 11.8147 23.0648 11.8104 23.495 12.2347C23.9252 12.6591 23.9281 13.3533 23.5037 13.782L15.757 21.6089ZM21.7216 32.8118C20.7066 32.8118 19.7762 32.2956 19.2279 31.4089L13.5739 22.2345L4.30476 16.4376C3.3058 15.812 2.78372 14.6979 2.94559 13.5268C3.10601 12.3558 3.90955 11.4254 5.0383 11.0943L27.5783 4.49389C28.6152 4.19056 29.7264 4.47785 30.4906 5.2391C31.2548 6.00764 31.5391 7.13056 31.23 8.17181L24.561 30.6943C24.227 31.8274 23.2937 32.6281 22.1256 32.7841C21.9885 32.8016 21.8558 32.8118 21.7216 32.8118V32.8118Z" fill="white"/>
</g>
</svg>
