<svg width="35" height="35" viewBox="0 0 35 35" fill="none" xmlns="http://www.w3.org/2000/svg">
<path fill-rule="evenodd" clip-rule="evenodd" d="M17.3383 18.4021H17.385C21.655 18.4021 25.1273 14.9298 25.1273 10.6598C25.1273 6.38977 21.655 2.91602 17.385 2.91602C13.1135 2.91602 9.63977 6.38977 9.63977 10.6554C9.62519 14.9137 13.0771 18.3889 17.3383 18.4021ZM11.7223 10.6598C11.7223 7.53747 14.2627 4.99852 17.385 4.99852C20.5058 4.99852 23.0448 7.53747 23.0448 10.6598C23.0448 13.7806 20.5058 16.321 17.385 16.321H17.3427C14.2335 16.3093 11.7121 13.7718 11.7223 10.6598Z" fill="white"/>
<path fill-rule="evenodd" clip-rule="evenodd" d="M5.8335 26.5021C5.8335 31.8936 14.5281 31.8936 17.385 31.8936C22.3418 31.8936 28.9335 31.338 28.9335 26.5313C28.9335 21.1398 20.2418 21.1398 17.385 21.1398C12.4266 21.1398 5.8335 21.6955 5.8335 26.5021ZM8.021 26.5021C8.021 24.3948 11.171 23.3273 17.385 23.3273C23.5975 23.3273 26.746 24.4051 26.746 26.5313C26.746 28.6386 23.5975 29.7061 17.385 29.7061C11.171 29.7061 8.021 28.6284 8.021 26.5021Z" fill="white"/>
</svg>
